<svg width="18" height="25" viewBox="0 0 18 25" fill="none" xmlns="http://www.w3.org/2000/svg">
<path d="M7.24509 17.2646L6.54509 11.5946L6.72009 11.4196C11.0368 11.2562 13.1951 9.92624 13.1951 7.42957C13.1951 6.42624 12.8334 5.62124 12.1101 5.01457C11.3868 4.4079 10.4068 4.10457 9.17009 4.10457C7.09342 4.10457 5.19175 5.02624 3.46509 6.86957L0.840088 4.06957C3.12675 1.47957 5.93842 0.18457 9.27509 0.18457C11.7484 0.18457 13.7318 0.837904 15.2251 2.14457C16.7184 3.4279 17.4651 5.16624 17.4651 7.35957C17.4651 9.43624 16.8234 11.0462 15.5401 12.1896C14.2568 13.3096 12.5534 14.0562 10.4301 14.4296L10.0801 17.2646H7.24509ZM6.23009 24.9996V20.2046H10.9201V24.9996H6.23009Z" fill="white"/>
</svg>
