<svg width="37" height="157" viewBox="0 0 37 157" fill="none" xmlns="http://www.w3.org/2000/svg">
<path d="M31.5938 155.993C32.4001 156.184 33.2079 155.684 33.398 154.878L36.4955 141.738C36.6856 140.931 36.186 140.124 35.3797 139.934C34.5734 139.744 33.7656 140.243 33.5756 141.049L30.8222 152.729L19.1423 149.976C18.336 149.786 17.5283 150.285 17.3382 151.092C17.1481 151.898 17.6477 152.706 18.454 152.896L31.5938 155.993ZM30.7221 0.0311378C8.82632 30.3393 -0.653114 54.0966 0.18416 77.947C1.01938 101.739 12.1194 125.34 30.6623 155.322L33.2137 153.744C14.6984 123.807 3.98782 100.787 3.18231 77.8417C2.37887 54.9551 11.4285 31.8602 33.1539 1.78795L30.7221 0.0311378Z" fill="url(#paint0_linear_113_345)"/>
<defs>
<linearGradient id="paint0_linear_113_345" x1="30.6143" y1="158.733" x2="24.5211" y2="4.41266" gradientUnits="userSpaceOnUse">
<stop stop-color="white"/>
<stop offset="1" stop-color="white" stop-opacity="0"/>
</linearGradient>
</defs>
</svg>
